<svg width="178" height="52" viewBox="0 0 178 52" fill="none" xmlns="http://www.w3.org/2000/svg">
<ellipse cx="23.7268" cy="26.1829" rx="2.18623" ry="2.19513" fill="#24A1DD"/>
<ellipse cx="21.3584" cy="22.1587" rx="1.45749" ry="1.46342" fill="#24A1DD"/>
<ellipse cx="26.6418" cy="29.8413" rx="1.45749" ry="1.46342" transform="rotate(-180 26.6418 29.8413)" fill="#24A1DD"/>
<ellipse cx="19.1721" cy="19.5976" rx="1.09312" ry="1.09756" fill="#24A1DD"/>
<ellipse cx="28.8281" cy="32.4024" rx="1.09312" ry="1.09756" transform="rotate(-180 28.8281 32.4024)" fill="#24A1DD"/>
<ellipse cx="16.2571" cy="19.4146" rx="0.910931" ry="0.914635" fill="#24A1DD"/>
<ellipse cx="31.7431" cy="32.5854" rx="0.910931" ry="0.914635" transform="rotate(-180 31.7431 32.5854)" fill="#24A1DD"/>
<ellipse cx="14.0708" cy="21.2437" rx="0.910931" ry="0.914635" fill="#24A1DD"/>
<ellipse cx="33.9292" cy="30.7563" rx="0.910931" ry="0.914635" transform="rotate(-180 33.9292 30.7563)" fill="#24A1DD"/>
<ellipse cx="12.5223" cy="22.9816" rx="0.637652" ry="0.640245" fill="#24A1DD"/>
<ellipse cx="35.4777" cy="29.0184" rx="0.637652" ry="0.640245" transform="rotate(-180 35.4777 29.0184)" fill="#24A1DD"/>
<path d="M55.0844 32.18C51.1244 32.18 48.8744 29.498 48.8744 25.592C48.8744 21.686 51.2684 19.004 55.3724 19.004C59.2064 19.004 61.2584 21.2 61.2584 23.504H58.6304C58.3064 22.316 57.2264 21.362 55.3724 21.362C52.9784 21.362 51.7724 22.874 51.7724 25.592C51.7724 28.31 52.9784 29.822 55.3724 29.822C57.4964 29.822 58.4864 28.688 58.6484 26.816H55.7144V24.854H61.4024V32H59.3324L59.0624 30.092C58.4684 31.46 57.2264 32.18 55.0844 32.18ZM68.5609 32.18C64.8349 32.18 62.9449 30.452 62.9449 27.14V19.184H65.8429V26.852C65.8429 29.084 66.6709 29.822 68.5609 29.822C70.4509 29.822 71.2789 29.084 71.2789 26.852V19.184H74.1769V27.14C74.1769 30.452 72.2869 32.18 68.5609 32.18ZM78.8022 32H75.9042V19.184H78.8022V32ZM92.4214 25.592C92.4214 29.642 90.1894 32 85.9234 32H80.6854V19.184H85.9234C90.1894 19.184 92.4214 21.542 92.4214 25.592ZM89.5234 25.592C89.5234 22.838 88.3714 21.452 86.0674 21.452H83.5834V29.732H86.0674C88.3714 29.732 89.5234 28.346 89.5234 25.592ZM103.411 32H93.7987V19.184H103.411V21.542H96.6967V24.35H102.835V26.582H96.6967V29.642H103.411V32ZM113.711 32H104.855V19.184H107.753V29.642H113.711V32ZM117.79 32H114.892V19.184H117.79V32ZM130.906 32H127.828L122.428 23.324V32H119.674V19.184H122.752L128.152 27.86V19.184H130.906V32ZM142.434 32H132.822V19.184H142.434V21.542H135.72V24.35H141.858V26.582H135.72V29.642H142.434V32Z" fill="#1C2431"/>
<path d="M146.777 32H143.879V19.184H146.777V32ZM161.134 33.44H158.65L157.39 31.712C156.58 32.018 155.662 32.18 154.636 32.18C150.532 32.18 148.138 29.498 148.138 25.592C148.138 21.686 150.532 19.004 154.636 19.004C158.74 19.004 161.134 21.686 161.134 25.592C161.134 27.734 160.414 29.498 159.1 30.668L161.134 33.44ZM154.636 29.822C155.104 29.822 155.518 29.768 155.896 29.66L153.538 26.42H156.022L157.516 28.49C158.002 27.788 158.236 26.816 158.236 25.592C158.236 22.874 157.03 21.362 154.636 21.362C152.242 21.362 151.036 22.874 151.036 25.592C151.036 28.31 152.242 29.822 154.636 29.822Z" fill="#24A1DD"/>
</svg>
