<svg width="292" height="64" viewBox="0 0 292 64" fill="none" xmlns="http://www.w3.org/2000/svg">
<mask id="path-1-inside-1_320_25851" fill="white">
<path d="M0 0H292V64H0V0Z"/>
</mask>
<path d="M0 0H292V64H0V0Z" fill="white"/>
<path d="M292 0H291V64H292H293V0H292Z" fill="#E0E0E0" mask="url(#path-1-inside-1_320_25851)"/>
<ellipse cx="23.7268" cy="32.1834" rx="2.18623" ry="2.19513" fill="#24A1DD"/>
<ellipse cx="21.3584" cy="28.1587" rx="1.45749" ry="1.46342" fill="#24A1DD"/>
<ellipse cx="26.6416" cy="35.8413" rx="1.45749" ry="1.46342" transform="rotate(-180 26.6416 35.8413)" fill="#24A1DD"/>
<ellipse cx="19.1722" cy="25.5976" rx="1.09312" ry="1.09756" fill="#24A1DD"/>
<ellipse cx="28.8283" cy="38.4024" rx="1.09312" ry="1.09756" transform="rotate(-180 28.8283 38.4024)" fill="#24A1DD"/>
<ellipse cx="16.2571" cy="25.4146" rx="0.910931" ry="0.914635" fill="#24A1DD"/>
<ellipse cx="31.7434" cy="38.5854" rx="0.910931" ry="0.914635" transform="rotate(-180 31.7434 38.5854)" fill="#24A1DD"/>
<ellipse cx="14.0711" cy="27.2447" rx="0.910931" ry="0.914635" fill="#24A1DD"/>
<ellipse cx="33.9294" cy="36.7553" rx="0.910931" ry="0.914635" transform="rotate(-180 33.9294 36.7553)" fill="#24A1DD"/>
<ellipse cx="12.5224" cy="28.982" rx="0.637652" ry="0.640245" fill="#24A1DD"/>
<ellipse cx="35.4781" cy="35.018" rx="0.637652" ry="0.640245" transform="rotate(-180 35.4781 35.018)" fill="#24A1DD"/>
<path d="M54.606 38.18C50.646 38.18 48.486 35.498 48.486 31.592C48.486 27.686 50.772 25.004 54.84 25.004C58.602 25.004 60.618 27.182 60.618 29.486H58.422C58.098 28.1 56.91 27.002 54.84 27.002C52.266 27.002 50.934 28.64 50.934 31.592C50.934 34.544 52.266 36.182 54.84 36.182C57.234 36.182 58.278 34.832 58.422 32.69H55.182V31.016H60.744V38H58.962L58.746 35.84C58.188 37.334 56.91 38.18 54.606 38.18ZM67.8347 38.18C64.1447 38.18 62.3627 36.47 62.3627 33.158V25.184H64.8107V32.924C64.8107 35.336 65.7287 36.182 67.8347 36.182C69.9407 36.182 70.8767 35.336 70.8767 32.924V25.184H73.3247V33.158C73.3247 36.47 71.5427 38.18 67.8347 38.18ZM77.5767 38H75.1287V25.184H77.5767V38ZM91.0244 31.592C91.0244 35.624 88.8824 38 84.6524 38H79.5584V25.184H84.6524C88.8824 25.184 91.0244 27.578 91.0244 31.592ZM88.5764 31.592C88.5764 28.622 87.3164 27.11 84.7784 27.11H82.0064V36.074H84.7784C87.3164 36.074 88.5764 34.562 88.5764 31.592ZM101.838 38H92.4959V25.184H101.838V27.182H94.9439V30.53H101.262V32.402H94.9439V36.002H101.838V38ZM111.928 38H103.342V25.184H105.79V36.002H111.928V38ZM115.633 38H113.185V25.184H115.633V38ZM128.577 38H125.949L119.937 28.658V38H117.615V25.184H120.243L126.237 34.526V25.184H128.577V38ZM139.895 38H130.553V25.184H139.895V27.182H133.001V30.53H139.319V32.402H133.001V36.002H139.895V38ZM146.186 38.18C142.622 38.18 140.894 36.614 140.894 33.878H143.27C143.468 35.57 144.242 36.344 146.24 36.344C148.184 36.344 149.03 35.516 149.03 34.328C149.03 33.446 148.544 32.87 146.582 32.582L144.944 32.348C142.262 31.97 141.218 31.034 141.218 28.946C141.218 26.642 142.856 25.004 146.186 25.004C149.516 25.004 151.154 26.624 151.154 29.126H148.832C148.67 27.614 147.842 26.84 146.132 26.84C144.422 26.84 143.666 27.632 143.666 28.802C143.666 29.684 144.08 30.134 145.79 30.368L147.428 30.602C150.038 30.98 151.478 31.97 151.478 34.184C151.478 36.578 149.75 38.18 146.186 38.18Z" fill="#303030"/>
<path d="M163.297 38.18C159.229 38.18 156.943 35.498 156.943 31.592C156.943 27.686 159.229 25.004 163.297 25.004C166.825 25.004 169.219 27.092 169.219 29.864H166.897C166.681 28.226 165.529 27.002 163.297 27.002C160.723 27.002 159.391 28.64 159.391 31.592C159.391 34.544 160.723 36.182 163.297 36.182C165.493 36.182 166.681 35.03 166.897 33.212H169.219C169.219 36.038 166.897 38.18 163.297 38.18ZM176.551 38.18C172.483 38.18 170.197 35.498 170.197 31.592C170.197 27.686 172.483 25.004 176.551 25.004C180.637 25.004 182.923 27.686 182.923 31.592C182.923 35.498 180.637 38.18 176.551 38.18ZM176.551 36.182C179.143 36.182 180.475 34.544 180.475 31.592C180.475 28.64 179.143 27.002 176.551 27.002C173.977 27.002 172.645 28.64 172.645 31.592C172.645 34.544 173.977 36.182 176.551 36.182ZM198.56 38H196.22V27.398L192.512 38H190.442L186.716 27.398V38H184.394V25.184H188.228L191.468 34.31L194.708 25.184H198.56V38ZM210.755 29.27C210.755 31.916 208.991 33.356 206.147 33.356H202.997V38H200.549V25.184H206.147C208.991 25.184 210.755 26.642 210.755 29.27ZM208.307 29.27C208.307 27.74 207.425 27.02 205.805 27.02H202.997V31.52H205.805C207.425 31.52 208.307 30.818 208.307 29.27ZM220.824 38H212.238V25.184H214.686V36.002H220.824V38ZM224.53 38H222.082V25.184H224.53V38ZM238.211 38H235.691L234.719 35.336H229.139L228.167 38H225.647L230.417 25.184H233.441L238.211 38ZM234.107 33.446L231.929 27.416L229.733 33.446H234.107ZM250.288 38H247.66L241.648 28.658V38H239.326V25.184H241.954L247.948 34.526V25.184H250.288V38ZM258.113 38.18C254.045 38.18 251.759 35.498 251.759 31.592C251.759 27.686 254.045 25.004 258.113 25.004C261.641 25.004 264.035 27.092 264.035 29.864H261.713C261.497 28.226 260.345 27.002 258.113 27.002C255.539 27.002 254.207 28.64 254.207 31.592C254.207 34.544 255.539 36.182 258.113 36.182C260.309 36.182 261.497 35.03 261.713 33.212H264.035C264.035 36.038 261.713 38.18 258.113 38.18ZM274.859 38H265.517V25.184H274.859V27.182H267.965V30.53H274.283V32.402H267.965V36.002H274.859V38Z" fill="#24A1DD"/>
</svg>
